<?xml version="1.0" encoding="UTF-8" standalone="no"?>
<!-- Created with Inkscape (http://www.inkscape.org/) -->

<svg
   version="1.1"
   id="svg1"
   width="348.97333"
   height="367.50668"
   viewBox="0 0 348.97333 367.50668"
   sodipodi:docname="KIDSev-Logo_Dekoelemente-Blume01(RGB).eps"
   xmlns:inkscape="http://www.inkscape.org/namespaces/inkscape"
   xmlns:sodipodi="http://sodipodi.sourceforge.net/DTD/sodipodi-0.dtd"
   xmlns="http://www.w3.org/2000/svg"
   xmlns:svg="http://www.w3.org/2000/svg">
  <defs
     id="defs1" />
  <sodipodi:namedview
     id="namedview1"
     pagecolor="#ffffff"
     bordercolor="#000000"
     borderopacity="0.25"
     inkscape:showpageshadow="2"
     inkscape:pageopacity="0.0"
     inkscape:pagecheckerboard="0"
     inkscape:deskcolor="#d1d1d1">
    <inkscape:page
       x="0"
       y="0"
       inkscape:label="1"
       id="page1"
       width="348.97333"
       height="367.50668"
       margin="0"
       bleed="0" />
  </sodipodi:namedview>
  <g
     id="g1"
     inkscape:groupmode="layer"
     inkscape:label="1">
    <g
       id="group-R5">
      <path
         id="path2"
         d="m 633.543,1811.91 c -0.344,68.39 -22.113,123.25 -21.566,191.7 0.679,74.87 5.39,142.36 16.785,214.63 12.492,79.51 22.25,135.19 76.64,200.92 53.094,64.07 111.989,115.13 194.7,135.73 153.008,38.02 271.208,80.12 418.678,11.67 68.79,-31.87 113.08,-53.23 166.52,-125.36 54.8,-73.91 102.64,-135.54 156.48,-210.06 16.18,74.52 21.57,111.79 26.89,165.09 9.49,93.7 47.09,225.95 125.85,284.5 91.92,68.39 202,83.47 310.17,72.21 150.95,-15.7 271.47,-90.08 333.78,-223.64 32.28,-69.2 64.56,-138.47 80.73,-207.67 15.22,-65.17 32.28,-133.08 41.43,-189.51 25.66,-157.71 44.36,-326.48 54.93,-486.38 9.01,-135.53 -20.26,-274.48 -17.88,-408.85 2.26,-123.87 -4.7,-239.749 -4.77,-357.331 C 2592.84,731.949 2576.05,594.16 2552.78,448.73 2536.26,345.551 2517.63,273.211 2481.53,181.281 2438.4,71.5508 2404.76,4.19141 2271.61,0.230469 2206.98,-1.67969 2161.33,8.01172 2110.08,19.4688 c -76.5,17.1328 -122.5,38.4921 -199.14,60.6718 -110.08,31.7384 -237.7,90.8394 -343.54,133.4884 -71.52,28.73 -130.01,86.062 -197.02,124 -116.16,65.863 -224.39,152.73 -325.87,238.992 -45.522,38.699 -91.721,64.969 -140.174,99.777 -64.082,46.063 -139.152,78.954 -203.574,124.684 -137.785,98 -296.66,208.008 -411.035,332.888 -142.77,156.01 -389.883,439.16 -246.434,665.66 52.9609,83.6 102.027,96.09 204.324,106.74 108.168,11.26 174.844,-15.97 274.551,-53.23"
         style="fill:#f26639;fill-opacity:1;fill-rule:nonzero;stroke:none"
         transform="matrix(0.13333333,0,0,-0.13333333,0,367.50667)" />
    </g>
  </g>
</svg>
