<svg xmlns="http://www.w3.org/2000/svg" width="263" height="264" fill="none"><path fill="#fccd20" d="M113.08.2c-4.08.2-7.28.56-11.4 1.3-5.23.94-10.16 3.33-15.27 4.7a100 100 0 0 0-16.38 5.95c-4.43 2.05-8.64 6.06-12.42 9.1-3.36 2.7-6.41 6.34-9.41 9.43a103 103 0 0 0-8.54 9.74c-5.51 7.42-7.47 10.3-13.43 17.5-3.79 4.57-8.49 14.14-11.1 19.37C12.3 82.97 9 87.79 7.3 94.02 4.41 104.6 1.7 115.98.93 126.88c-.67 9.79-1.7 20.03 0 29.77.7 4.02 2.53 7.69 3.54 11.6a86 86 0 0 0 5.87 15.95c2.9 6.07 5.26 12.54 9.09 18.12 3.44 5 7.4 11.1 11.84 15.3 2.24 2.12 5.08 3.5 7.38 5.57 2.42 2.16 4.68 4.39 7.27 6.33 5.2 3.9 10.48 7.62 15.73 11.43 11.52 8.37 23.98 13.29 37.98 16.05 13.47 2.64 26.63 6.75 40.5 6.7 12.48-.02 24.51-.62 36.4-4.6 6.35-2.13 12.18-3.93 18.04-7.21 5.28-2.96 10.4-6.65 15.22-10.32 4.05-3.07 8.08-6.13 12.27-9.05 6.05-4.2 9.51-10.4 13.98-16.04 7.46-9.44 12.62-19.72 17.14-30.73 2.58-6.24 4.3-13.09 6.13-19.62a76 76 0 0 0 2.88-17.28c.42-10.5 1.43-21.56-.16-32.01-1.43-9.55-4.3-19.14-7.6-28.18-4.46-12.19-9.36-24.22-15.96-35.44-1.77-3-3.95-5.9-5.9-8.8-2.52-3.79-4.93-4.44-7.57-8.07-.17-.24-8.52-7.87-9.74-8.63-3.26-2-6.73-3.6-10.04-5.5-2.14-1.24-4.32-2.19-6.44-3.36-1.31-.88-2.7-1.65-4-2.52-2.67-1.54-11.3-6.68-14.08-7.96-10.92-5.12-15.73-7-27.63-8.18-4.37-.42-11.1.14-15.5 0-8.74-.27-8.74-.27-15.74 0"/></svg>
