<?xml version="1.0" encoding="UTF-8" standalone="no"?>
<!-- Created with Inkscape (http://www.inkscape.org/) -->

<svg
   version="1.1"
   id="svg1"
   width="348.61334"
   height="374.60001"
   viewBox="0 0 348.61334 374.60001"
   sodipodi:docname="KIDSev-Logo_Dekoelemente-Blume02(RGB).eps"
   xmlns:inkscape="http://www.inkscape.org/namespaces/inkscape"
   xmlns:sodipodi="http://sodipodi.sourceforge.net/DTD/sodipodi-0.dtd"
   xmlns="http://www.w3.org/2000/svg"
   xmlns:svg="http://www.w3.org/2000/svg">
  <defs
     id="defs1" />
  <sodipodi:namedview
     id="namedview1"
     pagecolor="#ffffff"
     bordercolor="#000000"
     borderopacity="0.25"
     inkscape:showpageshadow="2"
     inkscape:pageopacity="0.0"
     inkscape:pagecheckerboard="0"
     inkscape:deskcolor="#d1d1d1">
    <inkscape:page
       x="0"
       y="0"
       inkscape:label="1"
       id="page1"
       width="348.61334"
       height="374.60001"
       margin="0"
       bleed="0" />
  </sodipodi:namedview>
  <g
     id="g1"
     inkscape:groupmode="layer"
     inkscape:label="1">
    <g
       id="group-R5">
      <path
         id="path2"
         d="m 550.961,2198.03 c -34.703,19.29 -27,19.29 -65.766,33.01 -39.523,13.96 -61.359,13.2 -99.871,13.2 -15.234,0 -50.359,2.12 -65.511,0 -21.243,-2.96 -34.954,-7.87 -55.692,-13.03 -40.625,-10.07 -53.66,-16.17 -83.027,-29.37 -34.789,-15.57 -52.817,-29.54 -79.223,-60.43 -92.00381,-108 -114.0937,-276.26 -96.06631,-412.45 8.04301,-61.19 11.34371,-130.25 52.81641,-180.11 19.9727,-24.12 47.5669,-44.85 72.8709,-62.88 12.867,-9.14 76.598,-27.68 99.707,-43.08 20.989,-13.97 -61.703,-16.59 -107.914,-54 -24.7147,-19.89 -48.16,-47.4 -61.617,-77.02 -28.7774,-63.14 -30.9766,-104.78 -30.8086,-173.43 0.0859,-59.16 1.6914,-123.4 12.7812,-181.542 6.5157,-34.449 27.168,-70.679 39.1875,-103.769 10.6641,-29.367 24.5429,-67.367 36.6489,-96.07 18.449,-44.008 37.492,-80.911 68.386,-117.977 66.778,-80.32 149.981,-135.684 248.582,-166.062 22.176,-9.309 44.688,-17.782 67.539,-25.219 35.465,-9.313 72.454,-19.391 108.594,-25.903 42.402,-7.789 69.063,-12.019 111.469,-11.847 42.656,0.25 110.961,-5.25 131.273,11.847 -7.703,-42.41 -13.629,-59.839 -13.711,-78.886 -0.086,-58.653 -2.539,-118.153 26.067,-171.813 22.937,-43.168 61.195,-70.25 103.258,-93.4373 32.336,-17.8633 73.976,-29.7929 108.846,-41.4726 45.28,-15.1485 83.88,-23.5274 126.7,-29.36722 C 1290.27,-4.50781 1348.59,1.75 1433.23,1.5 c 59.92,-0.25 171.39,51.8008 208.12,100.551 36.91,49.09 51.63,66.531 77.28,122.808 13.79,30.301 22.85,69.832 35.21,105.2 80.15,-54.59 167.84,-57.797 249.68,-58.477 107.32,-0.852 166.31,44.77 252.05,106.898 44.69,32.411 98.78,119.508 106.22,170.54 8.38,57.3 11.34,61.96 11.34,121.628 0,66.782 -0.93,131.102 -9.39,196.614 -2.28,17.609 -2.45,35.039 -9.9,51.117 -7.45,15.922 -28.61,62.133 -28.61,62.133 73.13,15.398 100.13,23.108 134.83,42.398 35.38,19.64 49.85,42.49 75.33,75.75 12.1,15.83 15.65,34.2 22.85,52.39 38.68,97.42 59.5,202.8 55.86,307.41 -2.2,66.02 -17.01,113.75 -28.86,177.06 -12.87,69.07 -57.47,140.67 -104.02,190.44 -16.51,17.6 -31.91,38.93 -47.65,57.55 -10.5,12.28 -18.12,28.1 -31.49,37.16 -11.42,7.62 -4.4,2.2 -38.34,17.27 -17.35,7.7 3.81,25.05 9.65,36.65 9.39,18.87 19.21,46.21 19.21,71.26 0,41.64 3.9,71.26 -3.81,115.53 -4.74,27.08 -14.47,46.89 -24.88,71.6 -13.37,31.74 -33.86,60.77 -48.84,91.41 -11.51,23.7 -65,85.49 -115.1,131.79 -25.57,23.61 -78.21,46.38 -111.73,57.72 -45.19,15.4 -61.7,25.81 -107.91,38.59 -81.42,22.6 -164.28,13.71 -240.54,-16.33 -36.82,-14.48 -67.63,-56.88 -106.22,-87.69 -7.03,36.31 -58.15,123.66 -81.09,157.68 -37.91,56.2 -97.84,110.88 -158.95,140.08 -44.01,21.07 -89.88,29.79 -136.69,42.91 -53.83,15.15 -108.93,25.82 -164.79,17.35 -63.14,-9.56 -130.425,-46.55 -187.386,-74.14 -37.41,-18.11 -77.953,-51.04 -109.269,-77.95 -31.485,-27.09 -66.102,-51.04 -88.618,-86.25 -12.691,-19.89 -38.086,-46.72 -46.464,-67.37 -5.165,-12.53 -11.172,-23.95 -16.926,-36.9 -4.489,-10.24 -8.719,-20.74 -12.02,-30.56 -7.363,-22 -16.25,-39.27 -26.492,-61.95 -11.344,-25.05 -16.25,-42.58 -23.105,-69.32 -4.657,-18.28 -11.512,-37.75 -11.512,-53.92 0,-38.5 3.808,-47.9 3.808,-65.5"
         style="fill:#fccd20;fill-opacity:1;fill-rule:nonzero;stroke:none"
         transform="matrix(0.13333333,0,0,-0.13333333,0,374.6)" />
    </g>
  </g>
</svg>
