<?xml version="1.0" encoding="UTF-8" standalone="no"?>
<!-- Created with Inkscape (http://www.inkscape.org/) -->

<svg
   version="1.1"
   id="svg1"
   width="262.90668"
   height="263.72"
   viewBox="0 0 262.90668 263.72"
   sodipodi:docname="KIDSev-Logo_Dekoelemente-Kreis(RGB).eps"
   xmlns:inkscape="http://www.inkscape.org/namespaces/inkscape"
   xmlns:sodipodi="http://sodipodi.sourceforge.net/DTD/sodipodi-0.dtd"
   xmlns="http://www.w3.org/2000/svg"
   xmlns:svg="http://www.w3.org/2000/svg">
  <defs
     id="defs1" />
  <sodipodi:namedview
     id="namedview1"
     pagecolor="#ffffff"
     bordercolor="#000000"
     borderopacity="0.25"
     inkscape:showpageshadow="2"
     inkscape:pageopacity="0.0"
     inkscape:pagecheckerboard="0"
     inkscape:deskcolor="#d1d1d1">
    <inkscape:page
       x="0"
       y="0"
       inkscape:label="1"
       id="page1"
       width="262.90668"
       height="263.72"
       margin="0"
       bleed="0" />
  </sodipodi:namedview>
  <g
     id="g1"
     inkscape:groupmode="layer"
     inkscape:label="1">
    <g
       id="group-R5">
      <path
         id="path2"
         d="m 848.145,1976.3 c -30.649,-1.47 -54.622,-4.19 -85.497,-9.73 -39.242,-7.01 -76.222,-24.99 -114.562,-35.28 -42.75,-11.54 -82.672,-25.9 -122.82,-44.56 -33.246,-15.38 -64.801,-45.46 -93.188,-68.31 -25.219,-20.24 -48.062,-47.5 -70.566,-70.68 -22.282,-22.96 -44.899,-47.5 -64.012,-73.06 -41.391,-55.64 -56.094,-77.24 -100.766,-131.19 C 168.348,1509.11 133.063,1437.41 113.5,1398.17 92.2383,1355.54 67.4688,1319.35 54.6914,1272.64 33.0898,1193.36 12.7344,1107.98 6.96484,1026.21 1.99219,952.809 -5.8125,876.02 6.96484,802.969 12.168,772.77 25.9648,745.289 33.543,715.891 43.9492,674.609 59.1016,635.141 77.5352,596.352 99.3633,550.77 117.004,502.262 145.73,460.41 c 25.786,-37.551 55.528,-83.23 88.778,-114.672 16.851,-15.949 38.113,-26.347 55.414,-41.847 18.098,-16.172 35.058,-32.911 54.512,-47.5 39.015,-29.172 78.597,-57.11 117.953,-85.719 C 548.793,107.898 642.203,71.0391 747.266,50.3398 848.258,30.5508 946.988,-0.328125 1050.92,0.0117188 1144.56,0.238281 1234.81,4.76172 1324.04,34.6211 c 47.61,15.9492 91.26,29.3984 135.26,54.0586 39.58,22.1603 78.03,49.8713 114.1,77.3513 30.43,23.071 60.62,46.028 92.06,67.86 45.35,31.55 71.36,78.031 104.84,120.328 55.98,70.793 94.66,147.922 128.58,230.48 19.34,46.821 32.24,98.16 45.92,147.133 11.65,41.727 19.9,86.289 21.6,129.609 3.17,78.821 10.74,161.719 -1.13,240.089 -10.74,71.59 -32.23,143.51 -57,211.37 -33.47,91.38 -70.23,181.63 -119.76,265.77 -13.24,22.5 -29.63,44.22 -44.22,66.04 -18.89,28.39 -36.98,33.25 -56.78,60.5 -1.24,1.82 -63.89,59.04 -73.05,64.7 -24.43,15.04 -50.44,27.02 -75.32,41.27 -16.06,9.28 -32.35,16.4 -48.29,25.22 -9.84,6.56 -20.25,12.33 -29.97,18.89 -20.02,11.53 -84.82,50.1 -105.63,59.71 -81.88,38.34 -117.95,52.48 -207.18,61.3 -32.8,3.16 -83.24,-1.02 -116.26,0 -65.595,2.03 -65.595,2.03 -118.072,0"
         style="fill:#fccd20;fill-opacity:1;fill-rule:nonzero;stroke:none"
         transform="matrix(0.13333333,0,0,-0.13333333,0,263.72)" />
    </g>
  </g>
</svg>
