<?xml version="1.0" encoding="UTF-8" standalone="no"?>
<!-- Created with Inkscape (http://www.inkscape.org/) -->

<svg
   version="1.1"
   id="svg1"
   width="351.06668"
   height="250.41333"
   viewBox="0 0 351.06668 250.41333"
   sodipodi:docname="KIDSev-Logo_Dekoelemente-Welle(RGB).eps"
   xmlns:inkscape="http://www.inkscape.org/namespaces/inkscape"
   xmlns:sodipodi="http://sodipodi.sourceforge.net/DTD/sodipodi-0.dtd"
   xmlns="http://www.w3.org/2000/svg"
   xmlns:svg="http://www.w3.org/2000/svg">
  <defs
     id="defs1" />
  <sodipodi:namedview
     id="namedview1"
     pagecolor="#ffffff"
     bordercolor="#000000"
     borderopacity="0.25"
     inkscape:showpageshadow="2"
     inkscape:pageopacity="0.0"
     inkscape:pagecheckerboard="0"
     inkscape:deskcolor="#d1d1d1">
    <inkscape:page
       x="0"
       y="0"
       inkscape:label="1"
       id="page1"
       width="351.06668"
       height="250.41333"
       margin="0"
       bleed="0" />
  </sodipodi:namedview>
  <g
     id="g1"
     inkscape:groupmode="layer"
     inkscape:label="1">
    <g
       id="group-R5">
      <path
         id="path2"
         d="M 21.4102,1868.13 -0.015625,1567.1 c 0,0 502.972625,146.83 618.074625,-254.45 C 733.16,911.367 866.867,74.4492 1708.73,0.359375 c 0,0 545.29,-27.679675 924.25,406.851625 l -119.4,271.461 c 0,0 -675.03,-705.9533 -1237.82,-56.102 0,0 -131.91,216.91 -358.108,847.22 0,0 -101.406,226.03 -327.886,332.87 -187.52,88.45 -379.614,81.78 -568.3558,65.47"
         style="fill:#8cbada;fill-opacity:1;fill-rule:nonzero;stroke:none"
         transform="matrix(0.13333333,0,0,-0.13333333,0,250.41333)" />
    </g>
  </g>
</svg>
