<?xml version="1.0" encoding="UTF-8" standalone="no"?>
<!-- Created with Inkscape (http://www.inkscape.org/) -->

<svg
   version="1.1"
   id="svg1"
   width="377.94666"
   height="365.05334"
   viewBox="0 0 377.94666 365.05334"
   sodipodi:docname="KIDSev-Logo_Dekoelemente-Wiese01(RGB).eps"
   xmlns:inkscape="http://www.inkscape.org/namespaces/inkscape"
   xmlns:sodipodi="http://sodipodi.sourceforge.net/DTD/sodipodi-0.dtd"
   xmlns="http://www.w3.org/2000/svg"
   xmlns:svg="http://www.w3.org/2000/svg">
  <defs
     id="defs1" />
  <sodipodi:namedview
     id="namedview1"
     pagecolor="#ffffff"
     bordercolor="#000000"
     borderopacity="0.25"
     inkscape:showpageshadow="2"
     inkscape:pageopacity="0.0"
     inkscape:pagecheckerboard="0"
     inkscape:deskcolor="#d1d1d1">
    <inkscape:page
       x="0"
       y="0"
       inkscape:label="1"
       id="page1"
       width="377.94666"
       height="365.05334"
       margin="0"
       bleed="0" />
  </sodipodi:namedview>
  <g
     id="g1"
     inkscape:groupmode="layer"
     inkscape:label="1">
    <g
       id="group-R5">
      <path
         id="path2"
         d="m 2834.67,1585.58 -51.32,133.65 c 0,0 -816.48,55.22 -1003.37,-488.26 L 1528.34,464.219 c 0,0 -266.09,1325.641 645.18,1741.421 l -138.7,138.7 c 0,0 -840.32,-404.47 -727.89,-1401.512 0,0 -513.953,1203.172 -66.41,1743.142 L 1054.78,2738 c 0,0 -517.854,-253.69 82.39,-1964.93 0,0 -277.018,719.38 -1025.803,1077.25 L 74.5508,1691.68 c 0,0 507.2462,-219.17 773.4612,-732.289 0,0 -693.754,230.859 -848.0510625,169.049 L 19.7773,1016.14 c 0,0 1032.3827,-24.288 1334.9627,-1016.1517188 L 1561.83,8.94141 c 0,0 265.32,1493.73859 1272.84,1576.63859"
         style="fill:#94d784;fill-opacity:1;fill-rule:nonzero;stroke:none"
         transform="matrix(0.13333333,0,0,-0.13333333,0,365.05333)" />
    </g>
  </g>
</svg>
