<?xml version="1.0" encoding="UTF-8" standalone="no"?>
<!-- Created with Inkscape (http://www.inkscape.org/) -->

<svg
   version="1.1"
   id="svg1"
   width="351.26666"
   height="339.48001"
   viewBox="0 0 351.26666 339.48001"
   sodipodi:docname="KIDSev-Logo_Dekoelemente-Wiese02(RGB).eps"
   xmlns:inkscape="http://www.inkscape.org/namespaces/inkscape"
   xmlns:sodipodi="http://sodipodi.sourceforge.net/DTD/sodipodi-0.dtd"
   xmlns="http://www.w3.org/2000/svg"
   xmlns:svg="http://www.w3.org/2000/svg">
  <defs
     id="defs1" />
  <sodipodi:namedview
     id="namedview1"
     pagecolor="#ffffff"
     bordercolor="#000000"
     borderopacity="0.25"
     inkscape:showpageshadow="2"
     inkscape:pageopacity="0.0"
     inkscape:pagecheckerboard="0"
     inkscape:deskcolor="#d1d1d1">
    <inkscape:page
       x="0"
       y="0"
       inkscape:label="1"
       id="page1"
       width="351.26666"
       height="339.48001"
       margin="0"
       bleed="0" />
  </sodipodi:namedview>
  <g
     id="g1"
     inkscape:groupmode="layer"
     inkscape:label="1">
    <g
       id="group-R5">
      <path
         id="path2"
         d="m 831.449,1399.09 c -21.39,49.57 -37.398,100.1 -60.711,149.09 -21.906,46.02 -39.609,95.08 -63.66,139.86 -21.535,40.27 -54.512,68.89 -73.984,110.86 -18.59,40.13 -52.817,77.16 -77.453,114.56 -25.895,39.24 -55.176,81.74 -86.899,116.63 -39.465,43.37 -99.804,77.45 -152.398,97.73 -43.817,16.9 -74.281,27.74 -120.313,10.26 -20.285,-7.6 -44.629,-12.1 -63.363,-22.35 -23.383,-12.84 -36,-26.34 -55.1758,-44.04 -21.3203,-19.55 -32.5313,-37.77 -45.6641,-64.77 -9.957,-20.51 -19.3242,-41.01 -26.25779,-62.7 -10.2539,-32.31 -3.17187,-49.57 -2.95312,-81.51 0.22265,-35.19 -1.769534,-61.15 5.53515,-96.26 6.48826,-31.35 5.60546,-63.81 11.35936,-95.09 6.5625,-36.14 24.711,-72.14 37.1758,-106.52 25.5977,-70.37 42.6367,-141.7 68.3085,-212.14 28.914,-79.45 55.914,-159.26 91.91,-235.76 C 249.363,1047.82 295.32,992.281 339.211,930.391 379.707,873.371 415.41,812.949 456.055,756.078 529.602,653.25 597.762,551.602 684.73,459.172 748.242,391.68 824,340.121 897.691,285.309 948.367,247.691 998.309,210.801 1047.14,170.75 c 33.56,-27.59 68.45,-54.371 99.29,-83.9492 30.32,-29.1289 55.62,-59.2305 87.04,-86.8203313 12.69,4.6484413 37.25,17.3398313 46.7,23.8984313 21.39,14.9805 60.93,40.3516 82.47,53.2617 72.29,43.1484 102.01,58.5704 177.77,102.3904 122.89,71.028 226.83,151.508 324.94,255.078 93.53,98.7 178.95,200.422 265.04,305.68 74.65,91.402 153.5,184.93 216.57,284.741 47.88,75.98 98.7,146.64 135.81,228.67 47.8,105.63 66.31,214.07 97.74,324.28 13.27,46.4 30.76,90.5 39.09,138.16 7.08,40.79 12.25,65.36 14.09,106.74 1.25,29.28 1.62,74.57 -3.84,102.9 -5.38,28.03 -5.6,51.19 -22.13,74.43 -19.32,27.22 -41.23,45.36 -73.1,45.74 -31.2,0.29 -62.55,-12.18 -93.16,-19.18 -55.84,-12.99 -108.44,-56.36 -156.24,-85.94 -59.9,-37.1 -107.77,-94.64 -158.45,-142.74 -46.99,-44.63 -95.74,-94.93 -133.59,-147.09 -33.04,-45.59 -45.29,-65.06 -79.52,-108.06 -22.35,-28.11 -56.5,-82.47 -87.48,-103.27 8.04,25.15 39.54,101.72 52.3,126.21 31.72,60.56 47.5,126.36 63.81,192.97 13.13,53.55 20.06,65.5 23.97,120.68 5.38,74.5 0,157.42 -8.78,231.48 -12.39,104.89 -13.72,230.15 -64.54,325.89 -28.99,54.59 -111.69,62.33 -164.72,45.07 -74.36,-24.04 -112.79,-84.46 -145.1,-151.07 -55.25,-113.97 -99.07,-233.1 -140.23,-352.97 -41.23,-119.87 -88,-238.48 -126.65,-358.94 -18,-55.99 -33.2,-112.05 -48.17,-168.7 -8.26,-31.5 -27.66,-57.91 -29.21,-91.32 -16.23,28.1 6.86,75.9 8.48,106.44 5.16,96.86 17.26,194.67 8.33,291.59 -16,175.05 -52.52,360.2 -124.95,520.57 -33.71,74.65 -67.94,148.12 -119.65,212.66 -18.59,23.24 -56.8,58.35 -89.109,55.7 -65.508,-5.39 -110.281,-105.04 -119.207,-159.7 -6.641,-40.65 -3.539,-81.96 -6.27,-122.82 -4.132,-61.52 -9.589,-133.82 -1.179,-195.04 8.113,-58.72 16.89,-117.07 20.062,-176.45 2.363,-44.26 11.36,-86.01 9.293,-130.05 -1.988,-44.99 7.379,-88.37 8.485,-133.51 0.96,-41.68 -0.883,-83.58 -1.106,-125.26 -0.148,-34 -2.066,-67.42 -1.254,-101.35"
         style="fill:#94d784;fill-opacity:1;fill-rule:nonzero;stroke:none"
         transform="matrix(0.13333333,0,0,-0.13333333,0,339.48)" />
    </g>
  </g>
</svg>
