<svg width="1434" height="365" viewBox="0 0 1434 365" fill="none" xmlns="http://www.w3.org/2000/svg">
<g clip-path="url(#clip0_1_2)">
<path d="M1313.24 159.446C1301.8 200.543 1292.1 231.532 1284.38 252.546C1280.79 240.443 1275.34 223.153 1267.89 200.809C1255.45 163.272 1243.61 125.54 1232.38 87.626C1212.96 92.547 1198.06 97.867 1187.56 103.453C1193.28 120.078 1205.91 159.712 1225.33 222.488C1244.75 285.264 1260.84 332.346 1273.61 364C1293.56 363.734 1305.66 363.734 1310.18 364C1316.83 336.868 1324.41 308.805 1332.93 280.077C1341.57 251.216 1351.55 218.764 1363.12 182.588C1374.56 146.412 1383.2 119.147 1388.65 100.926C1382.54 97.867 1372.96 94.143 1359.79 89.887C1346.63 85.631 1338.51 82.705 1335.45 81.375C1332.13 92.414 1324.68 118.482 1313.24 159.446ZM1291.43 337.4C1291.96 338.464 1291.83 339.528 1291.03 340.326C1290.23 341.124 1289.17 341.523 1288.11 341.39C1287.04 341.257 1286.11 340.592 1285.58 339.528C1279.73 324.765 1272.54 302.953 1264.03 273.959C1255.39 245.098 1250.47 228.872 1249 225.547C1229.85 166.362 1218.28 129.122 1214.16 114.226C1213.89 112.763 1214.02 111.832 1214.69 111.034C1215.49 110.369 1216.29 110.103 1217.48 110.236C1218.55 110.369 1219.21 111.034 1219.48 112.098C1223.73 126.861 1235.7 164.899 1255.65 226.478C1257.65 231.931 1262.3 247.226 1269.62 272.097C1276.93 297.101 1283.05 316.12 1288.11 329.021C1302.83 288.617 1315.57 247.515 1326.28 205.863C1330.7 188.91 1335.36 172.017 1340.24 155.19C1345.33 138.168 1350.97 121.313 1357.13 104.65C1357.4 103.586 1358.06 102.921 1359.13 102.921C1360.32 102.921 1361.12 103.453 1361.92 104.251C1362.59 105.049 1362.59 105.98 1362.05 107.177C1358.46 117.418 1354.87 128.723 1351.01 140.959C1341 173.927 1331.82 207.143 1323.48 240.576C1314.31 273.028 1303.67 305.214 1291.43 337.4ZM1380.54 327.026C1377.75 333.676 1376.82 339.528 1377.61 344.715C1378.41 349.769 1380.81 353.759 1384.93 356.685C1388.92 359.611 1393.31 361.606 1398.23 362.803C1403.02 363.867 1407.94 363.601 1412.86 362.138C1417.91 360.675 1421.64 357.749 1424.16 353.626C1427.22 349.769 1428.95 344.981 1429.48 339.528C1430.15 333.942 1429.48 328.755 1427.89 323.834C1426.16 319.046 1423.1 315.189 1418.31 312.396C1413.66 309.736 1407.94 308.805 1401.29 310.002C1392.38 311.598 1385.46 317.317 1380.54 327.026Z" fill="#F26639"/>
<path d="M1109.22 222.887C1107.49 210.252 1104.17 199.213 1099.25 189.903C1094.19 180.46 1087.01 173.544 1077.43 169.288C1067.86 165.032 1056.42 163.835 1043.12 165.697C1031.42 167.426 1021.44 173.411 1012.93 183.785C1004.17 194.845 997.95 207.694 994.707 221.424C990.983 236.187 988.988 251.482 988.722 267.309C988.323 283.269 990.318 298.431 994.441 312.662C998.697 326.893 1004.55 337.932 1012.4 345.646C1019.58 353.227 1028.89 358.281 1040.19 361.074C1051.5 363.867 1062.4 362.936 1072.65 358.148C1076.5 356.02 1080.23 352.828 1083.82 348.572C1087.41 344.449 1090.2 340.725 1092.2 337.134C1094.06 333.676 1096.72 328.755 1099.78 322.371L1106.69 309.071C1104.43 308.273 1101.64 306.943 1098.18 304.948C1094.72 303.086 1091.4 301.357 1088.21 300.027C1085.01 298.564 1081.96 297.633 1078.9 297.101L1074.64 303.352C1070.17 310.673 1064.51 317.192 1057.88 322.637C1056.02 323.568 1053.89 324.499 1051.23 325.297C1048.57 326.228 1045.91 326.361 1043.12 325.696C1030.09 323.834 1023.97 306.81 1024.77 274.624C1032.08 273.56 1040.99 272.496 1051.63 271.698L1083.02 269.171C1093.26 268.373 1102.17 267.309 1109.62 265.846C1110.95 249.886 1110.82 235.522 1109.22 222.887ZM1063.47 191.1C1064.8 190.834 1065.86 191.233 1066.39 192.297C1067.72 194.558 1067.33 195.888 1065.2 196.553C1059.61 197.351 1054.03 197.351 1048.57 196.553C1046.84 196.287 1046.18 195.223 1046.44 193.627C1046.71 191.632 1047.77 190.834 1049.77 191.1C1054.16 191.632 1058.81 191.632 1063.47 191.1ZM1083.02 212.646C1083.82 213.045 1084.48 213.577 1084.88 214.375C1085.28 215.173 1085.28 216.104 1084.88 217.035C1084.48 218.099 1083.82 218.498 1083.02 218.498C1065.86 217.7 1048.71 218.099 1031.42 219.828C1030.62 220.094 1029.95 219.695 1029.55 218.764C1029.15 217.833 1029.15 216.769 1029.55 215.838C1029.95 214.907 1030.62 214.375 1031.42 214.375C1048.71 212.646 1065.86 212.114 1083.02 212.646ZM1021.71 240.709C1021.31 239.778 1021.31 238.847 1021.71 237.916C1022.11 236.852 1022.9 236.453 1023.97 236.453C1045.65 235.788 1067.19 234.591 1088.87 232.596C1089.94 232.33 1090.73 232.995 1091.27 234.325C1091.93 236.586 1091 237.783 1088.87 238.049C1067.19 240.044 1045.65 241.374 1023.97 242.172C1022.9 242.172 1022.11 241.773 1021.71 240.709ZM1147.26 327.026C1144.47 333.676 1143.53 339.528 1144.33 344.715C1145.13 349.769 1147.66 353.759 1151.65 356.685C1155.64 359.611 1160.03 361.606 1164.95 362.803C1169.74 363.867 1174.66 363.601 1179.71 362.138C1184.63 360.675 1188.36 357.749 1190.88 353.626C1193.94 349.769 1195.67 344.981 1196.34 339.528C1196.87 333.942 1196.34 328.755 1194.61 323.834C1193.01 319.046 1189.82 315.189 1185.03 312.396C1180.38 309.736 1174.66 308.805 1168.01 310.002C1159.1 311.598 1152.18 317.317 1147.26 327.026Z" fill="#8CBADA"/>
<path d="M723.653 153.195C708.423 143.782 694.627 132.225 682.689 118.881C676.039 110.635 672.315 103.852 671.251 98.665C669.522 90.685 669.921 82.306 672.581 73.395C675.108 64.617 678.965 58.898 684.285 56.504C691.862 52.6139 700.517 51.3507 708.89 52.913C712.481 53.578 716.471 54.775 720.594 56.504C728.174 59.5915 735.471 63.3294 742.406 67.676C746.263 69.937 749.455 71.666 752.248 72.597C754.376 68.474 758.233 62.622 763.686 55.041C769.272 47.327 773.262 41.076 775.656 36.288C765.461 29.6956 754.892 23.7005 744.002 18.333L735.623 15.008C732.165 13.545 729.106 12.614 726.579 12.082C723.919 11.55 720.993 11.018 717.535 10.619C713.944 10.087 710.486 9.95398 707.028 10.353C689.472 10.619 674.576 14.476 662.34 21.791C648.907 29.372 639.198 43.47 633.346 64.085C627.383 82.9956 627.898 103.355 634.809 121.94C641.858 139.629 654.227 157.451 672.315 175.539L680.827 182.987C689.12 190.319 697.872 197.115 707.028 203.336C709.821 205.198 712.747 207.326 715.673 209.853L723.254 215.971C730.835 223.02 737.086 231.133 741.874 240.709C746.795 250.285 748.79 260.26 747.859 270.634C747.061 281.008 742.273 289.52 733.628 296.037C718.473 305.903 701.372 312.389 683.487 315.056C662.207 319.046 641.592 319.445 621.908 316.253C618.45 333.277 617.386 347.242 618.716 358.414C640.927 363.202 662.207 364.665 682.689 362.537C703.038 360.409 721.259 356.02 736.953 348.971C752.423 342.282 765.928 331.753 776.188 318.381C786.606 304.835 792.929 288.59 794.409 271.565C797.867 239.113 788.69 211.05 766.878 187.509C758.499 178.465 744.135 167.027 723.653 153.195ZM752.248 38.815C754.376 39.879 754.908 41.475 753.844 43.603C752.78 45.598 751.051 46.263 748.657 45.598C747.593 45.332 745.731 44.268 742.938 42.805C740.145 41.209 737.884 40.278 736.155 39.879C734.426 39.613 733.362 38.682 733.096 37.352C732.697 35.889 732.963 34.692 733.894 33.362C734.692 32.165 736.022 31.899 737.751 32.697C741.209 33.628 745.997 35.756 752.248 38.815ZM706.097 24.318C708.491 24.983 709.422 26.446 708.89 28.707C708.358 30.968 706.895 31.899 704.501 31.633C698.649 30.968 693.595 30.968 689.472 31.633C688.009 31.899 686.945 31.5 686.28 30.303C685.615 29.106 685.482 27.776 686.014 26.446C686.546 24.983 687.477 24.185 688.94 23.786C694.393 23.121 700.112 23.254 706.097 24.318ZM646.247 88.69C646.247 86.961 646.912 85.764 648.109 85.099C649.306 84.434 650.503 84.301 651.7 84.833C652.897 85.365 653.562 86.562 653.562 88.291C653.961 96.537 654.493 101.724 655.158 103.852C655.823 105.581 655.69 106.911 654.626 107.709C653.562 108.64 652.365 108.906 651.035 108.773C649.572 108.64 648.508 107.842 647.843 106.379C646.513 103.32 645.981 97.468 646.247 88.69ZM659.813 39.879C661.143 38.815 662.473 38.416 663.67 38.682C664.867 38.815 665.798 39.613 666.33 40.943C666.862 42.273 666.596 43.603 665.532 44.534C662.074 49.721 659.68 54.509 658.217 58.632C657.552 59.962 656.488 60.893 655.158 61.159C653.695 61.558 652.498 61.292 651.434 60.494C650.503 59.563 650.104 58.499 650.503 57.036C652.897 50.12 655.956 44.401 659.813 39.879ZM670.187 144.816C667.965 142.733 665.877 140.512 663.936 138.166C662.207 136.038 662.074 134.176 663.404 132.447C665.133 130.319 666.862 130.319 668.591 132.447C669.389 133.112 670.719 134.708 672.847 137.102C674.842 139.496 676.571 141.225 678.034 142.289C678.965 143.353 679.497 144.417 679.231 145.614C679.098 146.811 678.3 147.742 676.97 148.54C675.507 149.205 674.31 149.072 673.379 148.008L670.187 144.816ZM714.343 183.785C710.486 179.662 707.427 177.135 705.033 176.071C702.905 175.273 702.373 173.81 703.171 171.682C704.102 169.421 705.565 168.623 707.56 169.288C711.417 170.352 715.673 173.81 720.594 179.662C722.323 181.391 721.924 183.12 719.53 184.849C717.801 185.913 716.072 185.514 714.343 183.785ZM634.809 345.912C632.415 345.912 631.085 344.715 630.686 342.321C630.686 340.193 631.883 338.863 634.41 338.065C636.405 337.799 639.996 337.666 645.316 337.666C646.646 337.666 647.71 338.331 648.641 339.661C649.439 341.124 649.572 342.321 648.907 343.651C648.242 344.848 647.178 345.38 645.715 345.38C641.326 345.38 637.602 345.646 634.809 345.912ZM675.906 343.784C673.512 344.582 671.783 343.784 670.985 341.523C670.054 339.262 670.852 337.799 673.379 337.134C676.039 335.671 680.694 334.607 687.344 333.942C688.674 333.942 689.738 334.607 690.403 335.804C691.201 337.001 691.201 338.198 690.669 339.395C690.137 340.592 689.073 341.39 687.344 341.789C682.423 342.454 678.699 343.119 675.906 343.784ZM726.579 330.617C723.254 332.213 721.126 333.676 720.062 335.006C718.333 336.735 716.471 336.868 714.609 335.272C712.747 333.676 712.614 331.947 714.343 329.819C715.673 328.09 718.333 326.228 722.19 324.366L728.441 321.041C730.436 319.977 732.165 320.376 733.628 322.238C734.958 324.233 734.825 325.829 733.096 327.159C732.032 327.957 729.904 329.021 726.579 330.617ZM747.327 215.971L745.465 213.71C744.56 212.933 743.673 212.135 742.805 211.316C740.544 210.385 739.879 208.789 741.076 206.661C742.273 204.666 744.002 203.868 745.997 204.666C747.726 205.597 750.918 208.523 755.44 213.444C756.77 215.572 756.504 217.434 754.376 219.163C752.248 220.227 750.519 219.828 749.189 218.099L747.327 215.971ZM765.282 294.973C764.617 296.436 763.952 297.899 763.42 299.628C762.888 301.357 762.356 302.82 761.691 303.884C760.893 305.214 759.563 305.879 757.435 305.879C754.642 304.815 753.844 303.086 754.908 300.692C755.573 299.628 756.238 298.165 756.903 296.037L759.031 290.584C759.696 288.988 760.627 287.791 761.691 286.727C762.622 285.663 763.819 285.264 765.016 285.397C766.213 285.53 767.144 286.328 767.809 287.791C768.607 289.121 768.341 290.318 767.41 291.382C766.612 292.446 765.947 293.643 765.282 294.973ZM764.75 256.536C763.42 251.748 762.622 248.024 762.622 245.63C762.622 244.3 763.287 243.236 764.484 242.571C765.681 241.773 766.878 241.773 768.075 242.305C769.272 242.837 770.07 243.768 770.469 245.098C770.469 247.226 770.868 250.152 771.533 254.009C772.198 256.403 771.533 257.999 769.405 258.664C766.612 259.728 765.149 258.93 764.75 256.536Z" fill="#FCCD20"/>
<path d="M476.938 78.848C472.815 80.577 467.229 83.503 460.313 87.759C453.397 91.882 448.476 94.675 445.816 96.005C446.747 104.384 447.545 112.098 447.811 119.413C452.998 116.221 460.978 112.098 471.751 106.911C482.524 101.724 490.371 97.601 495.691 94.409C490.371 88.291 484.386 82.838 477.47 78.316L476.938 78.848ZM445.284 88.291C447.279 87.227 449.939 85.631 452.998 83.503C458.47 79.81 464.205 76.5207 470.155 73.661C462.175 69.937 453.663 66.878 444.752 64.883C443.954 70.735 444.22 78.582 445.284 88.291ZM454.062 12.082C435.043 8.09198 415.226 8.22501 394.877 12.348C394.877 32.83 396.872 149.072 401.128 360.941C443.023 365.197 479.332 356.685 510.188 335.538C528.941 322.77 544.369 302.953 556.738 276.353C568.974 249.62 575.092 222.488 575.092 194.691C575.092 166.362 568.043 136.437 554.078 105.049C542.791 77.4475 525.049 52.9556 502.341 33.628C488.146 22.7828 471.614 15.4046 454.062 12.082ZM450.471 312.662H448.875C446.082 313.061 444.885 311.997 445.284 309.603C445.55 302.288 445.417 291.914 444.752 278.614C443.886 263.645 443.443 248.654 443.422 233.66L442.624 208.789C442.358 200.144 442.092 192.696 442.092 186.445L440.496 117.817L438.501 99.463C436.332 86.8451 436.153 73.9654 437.969 61.292V60.76C437.969 59.696 438.368 58.765 439.299 57.834C440.097 57.036 441.294 56.77 442.624 57.036C445.417 57.435 447.545 57.701 448.875 58.1C460.748 60.3635 472.031 65.0364 482.027 71.8303C492.023 78.6242 500.521 87.3949 506.996 97.601C518.833 115.955 526.148 141.757 528.941 175.007C532 209.986 527.611 238.714 515.907 261.191C509.683 274.218 500.543 285.637 489.196 294.563C477.848 303.489 464.598 309.682 450.471 312.662ZM450.471 236.852C458.052 234.458 465.766 231.399 473.48 227.675C481.327 224.084 490.105 219.828 499.814 215.04C509.523 210.119 516.971 206.528 522.158 204.134C522.823 194.026 522.424 183.519 521.094 172.347C479.864 191.499 456.19 202.139 449.939 204.666L450.471 236.852ZM479.997 149.338C464.835 155.057 454.461 159.18 448.875 161.973L449.407 188.44V196.819L520.562 164.633C518.833 152.796 516.971 142.821 514.843 134.442C506.863 138.565 495.292 143.619 479.997 149.338ZM508.06 260.26C490.105 270.235 471.352 277.816 451.934 283.003C452.732 291.382 452.865 298.431 452.466 304.416C464.303 301.348 475.366 295.834 484.942 288.229C494.517 280.623 502.393 271.096 508.06 260.26ZM499.814 100.128C494.627 103.32 486.115 107.709 474.278 113.428C462.574 119.147 453.663 123.935 447.811 127.659L448.875 153.727L478.534 142.555C493.696 136.836 505.134 131.649 512.715 127.26C509.257 116.753 505.001 107.842 499.814 100.128ZM451.934 275.821C474.81 268.905 494.76 260.26 511.784 249.753C512.05 249.487 512.582 249.221 513.247 249.221C517.503 238.182 520.163 225.946 521.626 212.38C517.503 214.109 510.321 217.7 500.08 223.02C484.463 231.786 468.026 239.003 451.003 244.566V257.6C451.003 261.723 451.269 267.841 451.934 275.821Z" fill="#D9A4D7"/>
<path d="M265.468 9.82098C264.404 10.087 264.936 55.573 266.798 146.146C268.66 236.719 270.655 309.071 272.783 363.069C276.241 363.069 281.029 362.936 287.28 362.537L301.644 361.739C304.836 361.606 310.023 361.739 316.939 362.005C317.205 331.548 316.939 272.895 316.141 186.179C315.21 99.463 315.476 41.608 316.939 12.88C302.043 10.087 284.886 9.02301 265.468 9.82098ZM292.467 194.691C290.073 194.691 288.876 193.494 288.876 191.1V190.036C288.477 187.642 289.541 186.445 291.935 186.445C295.127 186.046 296.457 187.11 296.191 189.504V190.568C296.191 191.632 295.925 192.43 295.659 193.228C294.861 193.893 293.93 194.425 292.467 194.691ZM289.142 217.301C289.674 216.104 290.738 215.572 292.201 215.572C293.797 215.572 294.861 216.104 295.659 217.301C296.324 218.498 296.457 219.828 295.925 221.025C295.393 222.222 294.329 222.754 292.733 222.754C291.137 222.754 290.073 222.222 289.408 221.025C288.743 219.828 288.61 218.498 289.142 217.301ZM289.142 171.416C289.674 169.953 290.738 169.288 292.201 169.288C293.797 169.288 294.861 169.953 295.659 171.416C296.324 172.746 296.457 174.076 295.925 175.273C295.393 176.47 294.329 177.135 292.733 177.135C291.137 177.135 290.073 176.47 289.408 175.273C288.743 174.076 288.61 172.746 289.142 171.416ZM291.935 94.941C289.541 94.941 288.211 93.744 287.812 91.35V90.818C287.812 88.025 289.009 86.695 291.403 86.695C294.196 86.296 295.659 87.493 295.659 90.286V90.818C295.659 91.882 295.26 92.68 294.595 93.478C293.93 94.143 292.999 94.675 291.935 94.941ZM292.467 38.815C294.861 38.815 295.925 40.145 295.659 42.539V43.071C295.659 44.8 294.994 45.997 293.797 46.662C292.6 47.327 291.27 47.327 289.94 46.662C288.477 45.997 287.812 44.933 287.812 43.603V43.071C287.812 39.879 289.408 38.549 292.467 38.815ZM294.329 61.425C295.127 62.356 295.659 63.287 295.659 64.351V64.883C295.659 65.947 295.26 66.745 294.595 67.41C293.93 68.208 292.999 68.607 291.935 69.006C289.541 69.006 288.211 67.809 287.812 65.415V64.883C287.812 62.09 289.009 60.76 291.403 60.76C292.467 60.361 293.398 60.627 294.329 61.425ZM294.861 121.94C294.329 123.403 293.265 124.068 291.669 124.068C290.206 124.068 289.009 123.403 288.078 121.94C287.147 120.61 287.147 119.28 287.812 118.083C288.477 116.886 289.674 116.221 291.137 116.221C292.733 116.221 293.93 116.886 294.595 118.083C295.26 119.28 295.393 120.61 294.861 121.94ZM294.861 139.895C294.329 141.092 293.265 141.757 291.669 141.757C290.206 141.757 289.009 141.092 288.078 139.895C287.147 138.698 287.147 137.368 287.812 136.038C288.477 134.708 289.674 133.91 291.137 133.91C292.733 133.91 293.93 134.708 294.595 136.038C295.26 137.368 295.393 138.698 294.861 139.895ZM295.393 239.645C294.861 240.842 293.797 241.507 292.201 241.507C290.738 241.507 289.541 240.842 288.876 239.645C288.211 238.448 288.078 237.118 288.61 235.788C289.142 234.458 290.206 233.66 291.669 233.66C293.265 233.66 294.329 234.458 295.127 235.788C295.792 237.118 295.925 238.448 295.393 239.645ZM296.457 255.206C295.925 256.536 294.861 257.068 293.265 257.068C291.669 257.068 290.605 256.536 289.94 255.206C289.142 254.009 289.142 252.812 289.674 251.349C290.206 250.019 291.137 249.221 292.733 249.221C294.329 249.221 295.393 250.019 296.191 251.349C296.856 252.812 296.856 254.009 296.457 255.206ZM296.856 281.54C297.787 282.87 297.92 284.2 297.122 285.397C296.457 286.594 295.393 287.259 294.063 287.259C291.669 287.259 290.206 286.195 289.94 284.067C289.541 281.008 290.738 279.412 293.531 279.412C294.861 279.412 296.058 280.077 296.856 281.54ZM292.201 321.307C292.733 319.977 293.797 319.445 295.393 319.445C296.856 319.445 298.053 319.977 298.718 321.307C299.383 322.504 299.516 323.701 298.984 325.164C298.452 326.494 297.388 327.159 295.925 327.159C294.329 327.159 293.132 326.494 292.467 325.164C291.802 323.701 291.669 322.504 292.201 321.307ZM292.733 302.554C293.265 301.357 294.329 300.692 295.925 300.692C297.388 300.692 298.585 301.357 299.25 302.554C299.915 303.751 300.048 305.081 299.516 306.411C298.984 307.874 297.92 308.539 296.457 308.539C294.861 308.539 293.664 307.874 292.999 306.411C292.334 305.081 292.201 303.751 292.733 302.554Z" fill="#FAB6A8"/>
<path d="M192.451 29.239C186.466 22.855 181.013 17.269 176.092 12.614C171.304 7.95898 166.383 3.836 161.595 0.377991C156.674 7.69299 151.487 15.274 145.768 22.988C140.049 30.835 133.266 39.879 125.419 49.987L108.528 72.597C92.3082 94.7944 75.181 116.314 57.19 137.102C57.456 124.201 59.052 104.118 61.845 76.587C64.638 49.056 65.968 27.111 65.968 10.752H4.12297C4.12297 19.131 3.59097 46.529 2.65997 92.946C1.59597 139.363 0.797971 171.682 0.531971 190.036C-0.357082 245.806 -0.179716 301.587 1.06397 357.35C6.51697 359.079 15.162 360.409 26.733 361.207L49.875 363.069C49.875 345.779 50.274 321.041 51.205 288.988C52.003 256.935 52.535 233.66 52.535 219.163C53.466 218.099 54.796 216.237 56.392 213.71C57.988 211.05 59.451 209.055 61.047 207.459C62.643 205.863 64.239 204.4 65.968 203.07C106.533 277.151 136.325 329.686 155.344 360.409C169.176 352.828 183.407 342.986 197.904 330.883C191.387 319.711 180.88 302.554 166.516 279.146C152.152 255.738 139.65 234.857 129.143 216.237C118.503 197.75 109.326 179.13 101.346 160.377C109.326 151.067 125.818 133.378 150.955 107.177C176.092 80.976 194.313 59.696 205.751 43.071L192.451 29.239Z" fill="#94D784"/>
</g>
<defs>
<clipPath id="clip0_1_2">
<rect width="1433.3" height="364.5" fill="white"/>
</clipPath>
</defs>
</svg>
